<svg width="350" height="350" viewBox="0 0 100 100" fill="none" xmlns="http://www.w3.org/2000/svg">
<path fill-rule="evenodd" clip-rule="evenodd" d="M94.7826 50C94.7826 74.7327 74.7327 94.7826 50 94.7826C25.2672 94.7826 5.21739 74.7327 5.21739 50C5.21739 25.2672 25.2672 5.21739 50 5.21739C74.7327 5.21739 94.7826 25.2672 94.7826 50ZM100 50C100 77.6142 77.6142 100 50 100C22.3858 100 0 77.6142 0 50C0 22.3858 22.3858 0 50 0C77.6142 0 100 22.3858 100 50ZM43.6311 38.9131C41.986 38.9131 40.6524 40.2467 40.6524 41.8918V52.1627C40.6524 53.7727 40.0231 55.319 38.8987 56.4715L33.898 61.5972C32.6567 62.8695 30.9544 63.587 29.1769 63.587H20.6062C19.4311 63.587 18.4785 64.5396 18.4785 65.7147V77.0028C18.4785 78.1779 19.4311 79.1305 20.6062 79.1305H31.8943C33.0694 79.1305 34.022 78.1779 34.022 77.0028V68.8663C34.022 67.0891 34.7392 65.3871 36.0111 64.1459L41.2461 59.037C42.3986 57.9122 43.9452 57.2826 45.5556 57.2826H56.3694C58.0145 57.2826 59.3481 55.949 59.3481 54.3039V48.2609V41.8918C59.3481 40.2467 58.0145 38.9131 56.3694 38.9131H50.0003H43.6311ZM40.6524 16.6745C40.6524 15.0294 41.986 13.6958 43.6311 13.6958H50.0003H56.3694C58.0145 13.6958 59.3481 15.0294 59.3481 16.6745V23.0436V29.0866C59.3481 30.7318 58.0145 32.0654 56.3694 32.0654H45.5556C43.9452 32.0654 42.3986 32.695 41.2461 33.8197L36.0111 38.9286C34.7392 40.1698 34.022 41.8718 34.022 43.649V51.7855C34.022 52.9606 33.0694 53.9132 31.8943 53.9132H20.6062C19.4311 53.9132 18.4785 52.9606 18.4785 51.7855V40.4974C18.4785 39.3223 19.4311 38.3697 20.6062 38.3697H29.1769C30.9544 38.3697 32.6567 37.6523 33.898 36.3799L38.8987 31.2542C40.0231 30.1017 40.6524 28.5555 40.6524 26.9454V16.6745ZM69.4868 37.1738C67.4891 37.1738 65.8697 38.7932 65.8697 40.7909V54.1317C65.8697 55.7343 65.2463 57.2739 64.1312 58.4249L61.0744 61.5804C59.8319 62.8629 58.1226 63.5869 56.337 63.5869H47.78C46.6049 63.5869 45.6523 64.5395 45.6523 65.7145V77.0027C45.6523 78.1778 46.6049 79.1304 47.78 79.1304H59.0682C60.2432 79.1304 61.1958 78.1778 61.1958 77.0027V68.8494C61.1958 67.0821 61.9051 65.3887 63.1645 64.1489L66.3512 61.012C67.5054 59.8759 69.0601 59.239 70.6797 59.239H84.4266C86.4242 59.239 88.0436 57.6196 88.0436 55.622V48.2608V40.7909C88.0436 38.7932 86.4242 37.1738 84.4266 37.1738H77.1741H69.4868Z" fill="url(#paint0_linear_7763_20616)"/>
<defs>
<linearGradient id="paint0_linear_7763_20616" x1="0" y1="50" x2="100" y2="50" gradientUnits="userSpaceOnUse">
<stop stop-color="#BE92FF"/>
<stop offset="1" stop-color="#8431FF"/>
</linearGradient>
</defs>
</svg>
